<svg width="262" height="29" viewBox="0 0 262 29" fill="none" xmlns="http://www.w3.org/2000/svg">
<path opacity="0.8" d="M2.06403 19V8.57H5.49403C6.53003 8.57 7.4307 8.78467 8.19603 9.214C8.96137 9.634 9.55403 10.236 9.97403 11.02C10.394 11.7947 10.604 12.714 10.604 13.778C10.604 14.8327 10.394 15.752 9.97403 16.536C9.55403 17.32 8.96137 17.9267 8.19603 18.356C7.4307 18.7853 6.53003 19 5.49403 19H2.06403ZM3.18403 17.95H5.49403C6.2967 17.95 6.99203 17.782 7.58003 17.446C8.16803 17.1007 8.6207 16.6153 8.93803 15.99C9.2647 15.3647 9.42803 14.6273 9.42803 13.778C9.42803 12.9287 9.2647 12.196 8.93803 11.58C8.61137 10.9547 8.15403 10.474 7.56603 10.138C6.97803 9.79267 6.28736 9.62 5.49403 9.62H3.18403V17.95ZM15.7167 19.168C15.0167 19.168 14.382 19 13.8127 18.664C13.2527 18.3187 12.8093 17.8473 12.4827 17.25C12.156 16.6527 11.9927 15.976 11.9927 15.22C11.9927 14.464 12.1513 13.7967 12.4687 13.218C12.786 12.63 13.2153 12.168 13.7567 11.832C14.3073 11.496 14.9233 11.328 15.6047 11.328C16.146 11.328 16.6267 11.4307 17.0467 11.636C17.476 11.832 17.84 12.1027 18.1387 12.448C18.4373 12.784 18.666 13.1667 18.8247 13.596C18.9833 14.016 19.0627 14.45 19.0627 14.898C19.0627 14.9913 19.058 15.0987 19.0487 15.22C19.0393 15.332 19.0253 15.4487 19.0067 15.57H12.6647V14.59H18.4047L17.9007 15.01C17.9847 14.4967 17.924 14.0393 17.7187 13.638C17.5227 13.2273 17.238 12.9053 16.8647 12.672C16.4913 12.4293 16.0713 12.308 15.6047 12.308C15.138 12.308 14.704 12.4293 14.3027 12.672C13.9107 12.9147 13.6027 13.2553 13.3787 13.694C13.1547 14.1233 13.066 14.6367 13.1127 15.234C13.066 15.8313 13.1593 16.354 13.3927 16.802C13.6353 17.2407 13.962 17.5813 14.3727 17.824C14.7927 18.0667 15.2407 18.188 15.7167 18.188C16.2673 18.188 16.7293 18.0573 17.1027 17.796C17.476 17.5347 17.7793 17.208 18.0127 16.816L18.9087 17.292C18.7593 17.628 18.5307 17.9407 18.2227 18.23C17.9147 18.51 17.546 18.7387 17.1167 18.916C16.6967 19.084 16.23 19.168 15.7167 19.168ZM23.5179 19.168C22.7993 19.168 22.1693 18.986 21.6279 18.622C21.0866 18.258 20.6946 17.7633 20.4519 17.138L21.3339 16.718C21.5486 17.1753 21.8473 17.5393 22.2299 17.81C22.6219 18.0807 23.0513 18.216 23.5179 18.216C23.9659 18.216 24.3439 18.1087 24.6519 17.894C24.9599 17.67 25.1139 17.3807 25.1139 17.026C25.1139 16.7647 25.0393 16.5593 24.8899 16.41C24.7406 16.2513 24.5679 16.13 24.3719 16.046C24.1759 15.962 24.0033 15.9013 23.8539 15.864L22.7759 15.556C22.0853 15.36 21.5859 15.0847 21.2779 14.73C20.9699 14.3753 20.8159 13.9647 20.8159 13.498C20.8159 13.0593 20.9279 12.6767 21.1519 12.35C21.3759 12.0233 21.6793 11.7713 22.0619 11.594C22.4446 11.4167 22.8693 11.328 23.3359 11.328C23.9706 11.328 24.5446 11.496 25.0579 11.832C25.5806 12.1587 25.9493 12.616 26.1639 13.204L25.2679 13.624C25.0813 13.204 24.8106 12.8773 24.4559 12.644C24.1106 12.4013 23.7233 12.28 23.2939 12.28C22.8739 12.28 22.5379 12.3873 22.2859 12.602C22.0339 12.8167 21.9079 13.0873 21.9079 13.414C21.9079 13.666 21.9733 13.8667 22.1039 14.016C22.2346 14.1653 22.3839 14.2773 22.5519 14.352C22.7293 14.4267 22.8833 14.4827 23.0139 14.52L24.2599 14.884C24.8666 15.0613 25.3379 15.3367 25.6739 15.71C26.0193 16.0833 26.1919 16.522 26.1919 17.026C26.1919 17.4367 26.0753 17.8053 25.8419 18.132C25.6179 18.4587 25.3053 18.7153 24.9039 18.902C24.5026 19.0793 24.0406 19.168 23.5179 19.168ZM30.207 19.168C29.731 19.168 29.3063 19.0793 28.933 18.902C28.5597 18.7153 28.2657 18.4633 28.051 18.146C27.8363 17.8287 27.729 17.4647 27.729 17.054C27.729 16.662 27.813 16.3073 27.981 15.99C28.149 15.6633 28.4103 15.388 28.765 15.164C29.1197 14.94 29.5723 14.7813 30.123 14.688L33.063 14.198V15.15L30.375 15.598C29.8337 15.6913 29.4417 15.864 29.199 16.116C28.9657 16.368 28.849 16.6667 28.849 17.012C28.849 17.348 28.9797 17.6327 29.241 17.866C29.5117 18.0993 29.857 18.216 30.277 18.216C30.7903 18.216 31.2383 18.1087 31.621 17.894C32.0037 17.67 32.3023 17.3713 32.517 16.998C32.7317 16.6247 32.839 16.2093 32.839 15.752V13.848C32.839 13.4 32.6757 13.036 32.349 12.756C32.0223 12.476 31.5977 12.336 31.075 12.336C30.6177 12.336 30.2163 12.4527 29.871 12.686C29.5257 12.91 29.269 13.204 29.101 13.568L28.149 13.05C28.289 12.7327 28.5083 12.4433 28.807 12.182C29.115 11.9207 29.465 11.7153 29.857 11.566C30.249 11.4073 30.655 11.328 31.075 11.328C31.6257 11.328 32.111 11.4353 32.531 11.65C32.9603 11.8647 33.2917 12.1633 33.525 12.546C33.7677 12.9193 33.889 13.3533 33.889 13.848V19H32.839V17.502L32.993 17.656C32.8623 17.936 32.657 18.1927 32.377 18.426C32.1063 18.65 31.7843 18.832 31.411 18.972C31.047 19.1027 30.6457 19.168 30.207 19.168ZM36.0487 19V11.496H37.0987V12.728L36.9587 12.546C37.136 12.1913 37.402 11.9113 37.7567 11.706C38.1207 11.5007 38.5594 11.398 39.0727 11.398H39.5487V12.448H38.8907C38.3494 12.448 37.9154 12.616 37.5887 12.952C37.262 13.288 37.0987 13.764 37.0987 14.38V19H36.0487ZM40.7792 19V11.496H41.8292V12.728L41.6892 12.546C41.8665 12.1913 42.1325 11.9113 42.4872 11.706C42.8512 11.5007 43.2898 11.398 43.8032 11.398H44.2792V12.448H43.6212C43.0798 12.448 42.6458 12.616 42.3192 12.952C41.9925 13.288 41.8292 13.764 41.8292 14.38V19H40.7792ZM49.0236 19.168C48.3143 19.168 47.6703 19 47.0916 18.664C46.513 18.3187 46.051 17.852 45.7056 17.264C45.3696 16.6667 45.2016 15.99 45.2016 15.234C45.2016 14.4873 45.3696 13.82 45.7056 13.232C46.0416 12.644 46.4943 12.182 47.0636 11.846C47.6423 11.5007 48.2956 11.328 49.0236 11.328C49.7516 11.328 50.4003 11.496 50.9696 11.832C51.5483 12.168 52.001 12.63 52.3276 13.218C52.6636 13.806 52.8316 14.478 52.8316 15.234C52.8316 15.9993 52.659 16.6807 52.3136 17.278C51.9683 17.866 51.5063 18.328 50.9276 18.664C50.3583 19 49.7236 19.168 49.0236 19.168ZM49.0236 18.118C49.5276 18.118 49.9803 17.992 50.3816 17.74C50.7923 17.488 51.1143 17.1427 51.3476 16.704C51.5903 16.2653 51.7116 15.7753 51.7116 15.234C51.7116 14.6927 51.5903 14.2073 51.3476 13.778C51.1143 13.3487 50.7923 13.008 50.3816 12.756C49.9803 12.504 49.5276 12.378 49.0236 12.378C48.5196 12.378 48.0623 12.504 47.6516 12.756C47.2503 13.008 46.9283 13.3487 46.6856 13.778C46.443 14.2073 46.3216 14.6927 46.3216 15.234C46.3216 15.7753 46.443 16.2653 46.6856 16.704C46.9283 17.1427 47.2503 17.488 47.6516 17.74C48.0623 17.992 48.5196 18.118 49.0236 18.118ZM54.6835 19V8.402H55.7335V19H54.6835ZM57.8827 19V8.402H58.9327V19H57.8827ZM63.2519 19.168C62.7759 19.168 62.3512 19.0793 61.9779 18.902C61.6046 18.7153 61.3106 18.4633 61.0959 18.146C60.8812 17.8287 60.7739 17.4647 60.7739 17.054C60.7739 16.662 60.8579 16.3073 61.0259 15.99C61.1939 15.6633 61.4552 15.388 61.8099 15.164C62.1646 14.94 62.6172 14.7813 63.1679 14.688L66.1079 14.198V15.15L63.4199 15.598C62.8786 15.6913 62.4866 15.864 62.2439 16.116C62.0106 16.368 61.8939 16.6667 61.8939 17.012C61.8939 17.348 62.0246 17.6327 62.2859 17.866C62.5566 18.0993 62.9019 18.216 63.3219 18.216C63.8352 18.216 64.2832 18.1087 64.6659 17.894C65.0486 17.67 65.3472 17.3713 65.5619 16.998C65.7766 16.6247 65.8839 16.2093 65.8839 15.752V13.848C65.8839 13.4 65.7206 13.036 65.3939 12.756C65.0672 12.476 64.6426 12.336 64.1199 12.336C63.6626 12.336 63.2612 12.4527 62.9159 12.686C62.5706 12.91 62.3139 13.204 62.1459 13.568L61.1939 13.05C61.3339 12.7327 61.5532 12.4433 61.8519 12.182C62.1599 11.9207 62.5099 11.7153 62.9019 11.566C63.2939 11.4073 63.6999 11.328 64.1199 11.328C64.6706 11.328 65.1559 11.4353 65.5759 11.65C66.0052 11.8647 66.3366 12.1633 66.5699 12.546C66.8126 12.9193 66.9339 13.3533 66.9339 13.848V19H65.8839V17.502L66.0379 17.656C65.9072 17.936 65.7019 18.1927 65.4219 18.426C65.1512 18.65 64.8292 18.832 64.4559 18.972C64.0919 19.1027 63.6906 19.168 63.2519 19.168ZM72.4816 19.168C71.7816 19.168 71.1516 19 70.5916 18.664C70.0316 18.3187 69.5883 17.852 69.2616 17.264C68.9443 16.6667 68.7856 15.9947 68.7856 15.248C68.7856 14.492 68.9443 13.82 69.2616 13.232C69.5883 12.644 70.027 12.182 70.5776 11.846C71.1376 11.5007 71.7723 11.328 72.4816 11.328C73.1256 11.328 73.6996 11.468 74.2036 11.748C74.7076 12.028 75.1043 12.406 75.3936 12.882L75.2256 13.176V8.402H76.2756V19H75.2256V17.32L75.3936 17.474C75.1323 18.0153 74.7403 18.4353 74.2176 18.734C73.7043 19.0233 73.1256 19.168 72.4816 19.168ZM72.5376 18.118C73.0416 18.118 73.4943 17.992 73.8956 17.74C74.3063 17.488 74.6283 17.1473 74.8616 16.718C75.1043 16.2793 75.2256 15.7893 75.2256 15.248C75.2256 14.7067 75.1043 14.2213 74.8616 13.792C74.6283 13.3533 74.3063 13.008 73.8956 12.756C73.4943 12.504 73.0416 12.378 72.5376 12.378C72.043 12.378 71.595 12.504 71.1936 12.756C70.7923 13.008 70.475 13.3487 70.2416 13.778C70.0176 14.2073 69.9056 14.6973 69.9056 15.248C69.9056 15.7893 70.0176 16.2793 70.2416 16.718C70.475 17.1473 70.7876 17.488 71.1796 17.74C71.581 17.992 72.0336 18.118 72.5376 18.118ZM81.9455 19.168C81.2362 19.168 80.5922 19 80.0135 18.664C79.4348 18.3187 78.9728 17.852 78.6275 17.264C78.2915 16.6667 78.1235 15.99 78.1235 15.234C78.1235 14.4873 78.2915 13.82 78.6275 13.232C78.9635 12.644 79.4162 12.182 79.9855 11.846C80.5642 11.5007 81.2175 11.328 81.9455 11.328C82.6735 11.328 83.3222 11.496 83.8915 11.832C84.4702 12.168 84.9228 12.63 85.2495 13.218C85.5855 13.806 85.7535 14.478 85.7535 15.234C85.7535 15.9993 85.5808 16.6807 85.2355 17.278C84.8902 17.866 84.4282 18.328 83.8495 18.664C83.2802 19 82.6455 19.168 81.9455 19.168ZM81.9455 18.118C82.4495 18.118 82.9022 17.992 83.3035 17.74C83.7142 17.488 84.0362 17.1427 84.2695 16.704C84.5122 16.2653 84.6335 15.7753 84.6335 15.234C84.6335 14.6927 84.5122 14.2073 84.2695 13.778C84.0362 13.3487 83.7142 13.008 83.3035 12.756C82.9022 12.504 82.4495 12.378 81.9455 12.378C81.4415 12.378 80.9842 12.504 80.5735 12.756C80.1722 13.008 79.8502 13.3487 79.6075 13.778C79.3648 14.2073 79.2435 14.6927 79.2435 15.234C79.2435 15.7753 79.3648 16.2653 79.6075 16.704C79.8502 17.1427 80.1722 17.488 80.5735 17.74C80.9842 17.992 81.4415 18.118 81.9455 18.118ZM89.9843 21.8V11.496H91.0343V13.176L90.8663 12.882C91.1649 12.406 91.5616 12.028 92.0563 11.748C92.5603 11.468 93.1343 11.328 93.7783 11.328C94.4876 11.328 95.1176 11.5007 95.6683 11.846C96.2283 12.182 96.6669 12.644 96.9843 13.232C97.3109 13.82 97.4743 14.492 97.4743 15.248C97.4743 15.9947 97.3109 16.6667 96.9843 17.264C96.6669 17.852 96.2283 18.3187 95.6683 18.664C95.1176 19 94.4876 19.168 93.7783 19.168C93.1343 19.168 92.5509 19.0233 92.0283 18.734C91.5149 18.4353 91.1276 18.0153 90.8663 17.474L91.0343 17.32V21.8H89.9843ZM93.7223 18.118C94.2263 18.118 94.6743 17.992 95.0663 17.74C95.4676 17.488 95.7803 17.1473 96.0043 16.718C96.2376 16.2793 96.3543 15.7893 96.3543 15.248C96.3543 14.6973 96.2376 14.2073 96.0043 13.778C95.7803 13.3487 95.4676 13.008 95.0663 12.756C94.6743 12.504 94.2263 12.378 93.7223 12.378C93.2183 12.378 92.7609 12.504 92.3503 12.756C91.9489 13.008 91.6269 13.3533 91.3843 13.792C91.1509 14.2213 91.0343 14.7067 91.0343 15.248C91.0343 15.7893 91.1509 16.2793 91.3843 16.718C91.6269 17.1473 91.9489 17.488 92.3503 17.74C92.7609 17.992 93.2183 18.118 93.7223 18.118ZM102.836 19.168C102.127 19.168 101.483 19 100.904 18.664C100.325 18.3187 99.8635 17.852 99.5181 17.264C99.1821 16.6667 99.0141 15.99 99.0141 15.234C99.0141 14.4873 99.1821 13.82 99.5181 13.232C99.8541 12.644 100.307 12.182 100.876 11.846C101.455 11.5007 102.108 11.328 102.836 11.328C103.564 11.328 104.213 11.496 104.782 11.832C105.361 12.168 105.813 12.63 106.14 13.218C106.476 13.806 106.644 14.478 106.644 15.234C106.644 15.9993 106.471 16.6807 106.126 17.278C105.781 17.866 105.319 18.328 104.74 18.664C104.171 19 103.536 19.168 102.836 19.168ZM102.836 18.118C103.34 18.118 103.793 17.992 104.194 17.74C104.605 17.488 104.927 17.1427 105.16 16.704C105.403 16.2653 105.524 15.7753 105.524 15.234C105.524 14.6927 105.403 14.2073 105.16 13.778C104.927 13.3487 104.605 13.008 104.194 12.756C103.793 12.504 103.34 12.378 102.836 12.378C102.332 12.378 101.875 12.504 101.464 12.756C101.063 13.008 100.741 13.3487 100.498 13.778C100.255 14.2073 100.134 14.6927 100.134 15.234C100.134 15.7753 100.255 16.2653 100.498 16.704C100.741 17.1427 101.063 17.488 101.464 17.74C101.875 17.992 102.332 18.118 102.836 18.118ZM108.496 19V11.496H109.546V12.728L109.406 12.546C109.583 12.1913 109.849 11.9113 110.204 11.706C110.568 11.5007 111.007 11.398 111.52 11.398H111.996V12.448H111.338C110.797 12.448 110.363 12.616 110.036 12.952C109.709 13.288 109.546 13.764 109.546 14.38V19H108.496Z" fill="#2C2757"/>
<path d="M178.672 9.30316H177.098V14.1054H178.45C178.556 14.1054 178.667 14.0996 178.784 14.0882C179.982 13.951 180.581 13.1391 180.581 11.6527C180.581 11.3441 180.549 11.0525 180.485 10.778C180.241 9.79473 179.637 9.30316 178.672 9.30316ZM178.704 19.1477H174.299V18.7017H175.571V9.30316H174.299V8.85715H179.134C179.812 8.85715 180.395 8.97716 180.883 9.21736C181.795 9.68606 182.25 10.4808 182.25 11.6013C182.25 12.1157 182.144 12.5789 181.932 12.9906C181.37 14.0653 180.226 14.6027 178.497 14.6027H177.098V18.7017H178.291C178.344 18.7017 178.397 18.7075 178.45 18.7189C178.619 18.7533 178.704 18.8961 178.704 19.1477ZM188.866 19.3193C188.102 19.3078 187.652 18.7875 187.514 17.7584C187.419 18.01 187.276 18.2443 187.085 18.4616C186.576 19.0333 185.934 19.3193 185.161 19.3193C184.842 19.3193 184.546 19.262 184.27 19.1477C183.539 18.8389 183.173 18.233 183.173 17.3296C183.173 17.181 183.183 17.0438 183.205 16.918C183.427 15.6147 184.858 14.9572 187.498 14.9457V13.8652C187.488 12.6989 187.01 12.1044 186.067 12.0815C185.664 12.0815 185.362 12.2303 185.161 12.5273C185.129 12.5846 185.039 12.8362 184.89 13.2822C184.763 13.6481 184.556 13.831 184.27 13.831C184.206 13.831 184.137 13.8251 184.063 13.8138C183.745 13.7337 183.586 13.5108 183.586 13.145C183.586 12.9505 183.65 12.756 183.777 12.5617C184.18 11.9558 184.996 11.6527 186.226 11.6527C187.954 11.6642 188.829 12.5389 188.85 14.2768V17.8956C188.86 18.456 188.998 18.7474 189.263 18.7705C189.592 18.7589 189.793 18.3416 189.868 17.5184L190.281 17.5356C190.27 17.7299 190.255 17.9128 190.233 18.0844C190.085 18.9077 189.629 19.3193 188.866 19.3193ZM185.749 18.6161C185.94 18.6161 186.141 18.5703 186.353 18.4788C186.936 18.1816 187.318 17.6384 187.498 16.8496V15.4259C186.756 15.4374 186.178 15.4945 185.765 15.5975C184.98 15.8033 184.588 16.2892 184.588 17.0552C184.588 17.181 184.593 17.3011 184.604 17.4154C184.699 18.2158 185.081 18.6161 185.749 18.6161ZM190.663 12.2873V11.8585H191.776V10.2292L193.128 9.86901V11.8585H195.529V12.2873H193.128V17.5012C193.138 18.3588 193.424 18.799 193.986 18.8219C194.527 18.8103 194.909 18.2959 195.131 17.2782L195.561 17.364C195.561 17.3753 195.561 17.3869 195.561 17.3984C195.317 18.6903 194.697 19.3363 193.7 19.3363C192.491 19.2906 191.85 18.5187 191.776 17.021V12.2873H190.663ZM201.842 19.3193C201.079 19.3078 200.628 18.7875 200.49 17.7584C200.395 18.01 200.252 18.2443 200.061 18.4616C199.552 19.0333 198.911 19.3193 198.137 19.3193C197.819 19.3193 197.522 19.262 197.246 19.1477C196.515 18.8389 196.149 18.233 196.149 17.3296C196.149 17.181 196.16 17.0438 196.181 16.918C196.403 15.6147 197.835 14.9572 200.474 14.9457V13.8652C200.464 12.6989 199.987 12.1044 199.043 12.0815C198.64 12.0815 198.338 12.2303 198.137 12.5273C198.105 12.5846 198.015 12.8362 197.866 13.2822C197.739 13.6481 197.532 13.831 197.246 13.831C197.183 13.831 197.114 13.8251 197.04 13.8138C196.721 13.7337 196.562 13.5108 196.562 13.145C196.562 12.9505 196.626 12.756 196.753 12.5617C197.156 11.9558 197.972 11.6527 199.202 11.6527C200.93 11.6642 201.805 12.5389 201.826 14.2768V17.8956C201.837 18.456 201.974 18.7474 202.24 18.7705C202.568 18.7589 202.77 18.3416 202.844 17.5184L203.257 17.5356C203.247 17.7299 203.231 17.9128 203.209 18.0844C203.061 18.9077 202.605 19.3193 201.842 19.3193ZM198.725 18.6161C198.916 18.6161 199.117 18.5703 199.329 18.4788C199.912 18.1816 200.294 17.6384 200.474 16.8496V15.4259C199.732 15.4374 199.154 15.4945 198.741 15.5975C197.957 15.8033 197.564 16.2892 197.564 17.0552C197.564 17.181 197.569 17.3011 197.58 17.4154C197.676 18.2158 198.057 18.6161 198.725 18.6161ZM205.531 14.3968C205.531 14.4998 205.531 14.6026 205.531 14.7056C205.595 16.0777 206.093 16.7638 207.026 16.7638C207.916 16.6951 208.41 15.9061 208.505 14.3968C208.505 14.191 208.5 14.0024 208.489 13.831C208.383 12.6646 207.895 12.0815 207.026 12.0815C206.952 12.0815 206.878 12.0872 206.803 12.0987C205.955 12.2015 205.531 12.9677 205.531 14.3968ZM207.042 11.6527C207.636 11.6527 208.176 11.7956 208.664 12.0815C208.717 11.8757 208.802 11.6814 208.918 11.4985C209.226 10.9839 209.629 10.7266 210.127 10.7266C210.254 10.7266 210.376 10.7495 210.493 10.7952C210.832 10.9325 211.002 11.1897 211.002 11.5669C211.002 11.6013 210.996 11.647 210.986 11.7041C210.933 11.99 210.774 12.1329 210.509 12.1329C210.403 12.1329 210.291 12.0758 210.175 11.9615C209.994 11.7786 209.83 11.6871 209.682 11.6871C209.395 11.7213 209.173 11.9386 209.014 12.3387C209.607 12.8418 209.91 13.5222 209.92 14.3798C209.92 15.0428 209.724 15.626 209.332 16.1291C208.759 16.838 207.986 17.1924 207.01 17.1924H206.963L205.547 17.1754C205.462 17.1754 205.383 17.1867 205.309 17.2096C204.99 17.2782 204.832 17.4555 204.832 17.7412C204.842 18.1415 205.075 18.3588 205.531 18.393L208.505 18.4616C208.653 18.4616 208.796 18.473 208.934 18.496C210.005 18.6446 210.54 19.2278 210.54 20.2453C210.54 20.5655 210.456 20.8684 210.286 21.1544C209.767 22.0005 208.69 22.4235 207.058 22.4235C206.411 22.4235 205.86 22.3206 205.404 22.1148C204.704 21.806 204.354 21.3373 204.354 20.7084C204.354 20.3196 204.524 19.9252 204.863 19.5249C204.429 19.2278 204.206 18.7761 204.195 18.17C204.195 17.9986 204.217 17.8327 204.259 17.6728C204.45 17.0552 204.874 16.7466 205.531 16.7466C205.446 16.6893 205.356 16.6265 205.261 16.5579C204.498 15.9747 204.116 15.2545 204.116 14.3968C204.116 13.7565 204.301 13.1964 204.673 12.7161C205.234 12.0072 206.024 11.6527 207.042 11.6527ZM207.058 21.9776C207.567 21.9776 208.033 21.9262 208.457 21.8232C209.337 21.5945 209.777 21.223 209.777 20.7084C209.777 20.5827 209.756 20.4627 209.713 20.3482C209.586 20.028 209.152 19.8623 208.41 19.8509L205.802 19.8165C205.621 19.8165 205.436 19.788 205.245 19.7309C205.022 20.028 204.906 20.3255 204.895 20.6226C204.895 20.7828 204.932 20.9427 205.006 21.103C205.293 21.686 205.976 21.9776 207.058 21.9776ZM213.18 15.4775C213.191 17.7299 213.859 18.8676 215.184 18.8905C216.467 18.8789 217.113 17.7185 217.124 15.4087C217.113 13.2134 216.456 12.1044 215.152 12.0815C213.848 12.093 213.191 13.2249 213.18 15.4775ZM215.2 11.6527C215.953 11.6527 216.626 11.87 217.219 12.3045C218.173 13.0134 218.651 14.0653 218.651 15.4603C218.651 16.5122 218.343 17.3984 217.728 18.1186C217.05 18.919 216.186 19.3193 215.136 19.3193C214.373 19.3193 213.684 19.0791 213.069 18.5989C212.136 17.8671 211.67 16.8038 211.67 15.4087C211.67 14.3912 211.966 13.5335 212.56 12.8362C213.249 12.0473 214.129 11.6527 215.2 11.6527ZM222.849 18.7189C222.912 18.7189 222.965 18.7247 223.008 18.7361C223.167 18.7589 223.246 18.8961 223.246 19.1477H219.7V18.7189C220.008 18.7189 220.241 18.696 220.4 18.6503C220.697 18.5474 220.845 18.233 220.845 17.707V12.2701H219.7V11.8413H222.117L222.181 13.4536C222.287 13.1676 222.43 12.9104 222.61 12.6818C223.13 11.9957 223.782 11.6527 224.566 11.6527C224.937 11.6527 225.287 11.7498 225.616 11.9443C226.379 12.4017 226.761 13.2306 226.761 14.4312V18.7189H227.508C227.572 18.7189 227.625 18.7247 227.667 18.7361C227.826 18.7589 227.906 18.8961 227.906 19.1477H224.312V18.7189C224.619 18.7189 224.847 18.6903 224.996 18.6332C225.271 18.5302 225.409 18.2216 225.409 17.707V14.2426C225.409 13.9452 225.372 13.6707 225.298 13.4194C225.086 12.756 224.656 12.4245 224.01 12.4245C223.734 12.4245 223.458 12.516 223.183 12.6989C222.547 13.1563 222.218 13.9053 222.197 14.9457V18.7189H222.849ZM236.97 18.3758C235.995 18.9933 234.966 19.3078 233.885 19.3193C232.411 19.3193 231.219 18.7931 230.307 17.7412C229.438 16.7237 229.003 15.466 229.003 13.9682C229.003 12.7333 229.316 11.6414 229.941 10.6922C230.842 9.35457 232.141 8.68555 233.837 8.68555C234.06 8.68555 234.282 8.69707 234.505 8.71994C235.502 8.83428 236.302 9.1429 236.906 9.646C236.906 9.37158 236.917 9.16596 236.938 9.02875C236.991 8.85715 237.14 8.77135 237.383 8.77135L237.431 11.9785H237.018C236.509 10.1264 235.48 9.18864 233.933 9.16596C233.381 9.16596 232.883 9.31451 232.438 9.61179C231.335 10.3436 230.784 11.8014 230.784 13.9852C230.784 14.8085 230.863 15.5459 231.022 16.1977C231.446 17.9586 232.395 18.8389 233.869 18.8389C235.47 18.8275 236.535 17.8671 237.065 15.9575H237.479V19.2335C237.352 19.2335 237.256 19.222 237.192 19.1991C237.044 19.1305 236.97 18.8561 236.97 18.3758ZM240.23 15.4775C240.24 17.7299 240.908 18.8676 242.234 18.8905C243.516 18.8789 244.163 17.7185 244.173 15.4087C244.163 13.2134 243.506 12.1044 242.202 12.0815C240.898 12.093 240.24 13.2249 240.23 15.4775ZM242.249 11.6527C243.002 11.6527 243.675 11.87 244.269 12.3045C245.223 13.0134 245.7 14.0653 245.7 15.4603C245.7 16.5122 245.393 17.3984 244.778 18.1186C244.099 18.919 243.235 19.3193 242.186 19.3193C241.423 19.3193 240.733 19.0791 240.118 18.5989C239.186 17.8671 238.719 16.8038 238.719 15.4087C238.719 14.3912 239.016 13.5335 239.61 12.8362C240.299 12.0473 241.179 11.6527 242.249 11.6527ZM252.347 19.1477L252.204 17.364C251.716 18.6446 250.89 19.2962 249.723 19.3193C249.151 19.3193 248.632 19.1363 248.165 18.7705C247.327 18.1071 246.909 17.0724 246.909 15.6661C246.909 14.7514 247.11 13.9338 247.513 13.2134C248.117 12.173 248.981 11.6527 250.105 11.6527C250.953 11.6527 251.642 11.9443 252.172 12.5273V8.42833H250.678V7.99951H253.54L253.556 18.7189H254.351C254.415 18.7189 254.473 18.7247 254.526 18.7361C254.664 18.7705 254.733 18.9077 254.733 19.1477H252.347ZM248.42 15.4603C248.42 16.0091 248.472 16.5007 248.578 16.9352C248.844 18.0557 249.384 18.6161 250.201 18.6161C250.593 18.6161 250.943 18.4788 251.25 18.2044C251.897 17.5983 252.22 16.5751 252.22 15.1343C252.22 14.494 252.141 13.9338 251.982 13.4536C251.674 12.5504 251.144 12.0987 250.391 12.0987C250.084 12.0987 249.808 12.1787 249.564 12.3387C248.801 12.819 248.42 13.8595 248.42 15.4603ZM259.074 12.0815C258.819 12.0815 258.581 12.1444 258.358 12.2701C257.638 12.6704 257.256 13.5451 257.213 14.8943L258.772 14.9457C259.238 14.9572 259.604 14.9287 259.869 14.8599C260.336 14.7342 260.569 14.3912 260.569 13.831C260.569 13.5908 260.537 13.3621 260.473 13.145C260.261 12.4359 259.795 12.0815 259.074 12.0815ZM261.889 17.484C261.825 17.6327 261.756 17.7813 261.682 17.93C261.141 18.8561 260.277 19.3193 259.09 19.3193C258.379 19.3193 257.743 19.1305 257.182 18.7533C256.196 18.0672 255.703 16.9924 255.703 15.5289C255.703 14.6941 255.872 13.9567 256.212 13.3164C256.816 12.2072 257.759 11.6527 259.042 11.6527C259.721 11.6527 260.325 11.8071 260.855 12.1157C261.618 12.5846 262 13.2249 262 14.0366C262 14.4256 261.878 14.7342 261.634 14.9629C261.263 15.283 260.399 15.4317 259.042 15.4087L257.213 15.3745C257.224 15.7976 257.256 16.1862 257.309 16.5407C257.563 18.0729 258.252 18.8389 259.376 18.8389C259.535 18.8389 259.699 18.8219 259.869 18.7875C260.611 18.6161 261.152 18.1302 261.491 17.3296L261.889 17.484Z" fill="#292F44"/>
<path d="M144.063 2.49976L143.722 2.47098L143.64 2.13775L142.621 0.954025L142.201 0.830025L143.104 -0.000488281L143.071 0.551965L143.713 0.965298L143.769 1.79205L143.844 2.1328L144.063 2.49976Z" fill="#373D52"/>
<path d="M146.896 6.43787L146.893 8.15398L145.101 6.31516L144.715 5.34809L143.966 4.60152L143.518 3.65828L144.27 4.232L144.011 3.52173L144.941 4.26958L145.672 5.30676L146.896 6.43787Z" fill="#373D52"/>
<path d="M164.154 15.9953L164.008 15.9941L163.552 15.9878L162.296 14.3557L161.908 14.3895L160.727 13.5916L160.095 13.6217L158.479 11.9995L158.749 11.3043L157.926 10.2771L157.133 10.1493L157.075 9.85246L156.68 9.71966L156.008 8.26035L155.535 6.89746L155.389 6.06071L154.537 5.60852L154.375 5.41441L153.914 4.86076L152.358 6.70463L151.285 7.2909L150.171 8.93937L150.821 10.2346L152.928 11.977L153.105 12.4067L153.664 12.7411L154.155 13.8271L155.032 14.3295L156.15 15.6385L154.459 14.6928L154.54 14.9821L154.786 15.6084L154.221 15.1299L153.656 14.9821L154.511 16.7095L153.111 15.2752L152.451 14.1516L152.013 13.7883L151.992 14.1691L149.958 11.7778L149.3 11.6037L148.565 10.9999L147.863 9.70839L147.098 8.83407L146.664 8.87412L145.678 8.09245L146.172 9.11213L145.253 8.42944L145.418 9.01196L144.084 8.2466L144.161 7.64283L143.947 7.1054L143.798 7.16681L144.008 6.42272L143.769 6.67704L143.721 6.14338L143.387 6.01938L143.655 5.93167L143.625 4.89073L142.509 4.05903L142.419 4.73667L142.08 5.20518L142.197 4.14169L142.434 3.70957L142.184 3.50667L141.93 3.82358L141.272 2.80767L141.775 1.25689L141.574 1.36962L141.601 0.55542L141.328 0.821015L140.904 1.71788L139.618 3.55176L138.594 4.32334L137.927 5.86284V5.86412L137.831 6.08839L136.777 7.94233L135.239 9.26885L134.543 10.276L135.641 11.3019L137.4 10.4388C137.826 10.7858 138.251 11.1328 138.677 11.4798L143.08 14.942L145.264 16.1922L146.508 16.1621L150.807 19.7296L152.241 20.9196L152.644 20.7455L152.956 21.0524L153.861 21.4031L154.699 21.9192L156.211 20.5363L156.743 19.2974L158.055 21.3731L158.443 21.1789L158.832 21.7264L159.731 20.956L160.187 20.1004L160.502 20.1355L160.796 19.7685L161.205 19.9201L162.029 21.2441L162.91 21.8341L163.339 22.478L163.657 21.7865L163.924 22.0483L164.412 22.0846L164.69 22.4817L164.857 22.5131L164.886 22.2788L165.137 22.6859L165.313 22.6158L170.106 20.6918L164.154 15.9953ZM154.674 10.6078L154.91 9.90387L155.157 9.53435L155.485 9.60702L154.674 10.6078ZM141.98 7.52259L141.645 6.86373L141.3 6.4767L141.143 6.75357L141.216 7.46879L140.604 6.89636L140.198 7.85463L140.161 7.48263L140.492 6.69473L140.497 6.22751L139.974 5.42082L140.063 4.70936L140.569 3.66714L141.275 4.42626L141.303 4.87973L141.663 5.34567L141.747 6.15107L142.118 6.81626L141.98 7.52259ZM145.228 11.3844L144.333 10.8784L143.898 10.5577L143.56 10.6328L142.999 10.103L142.62 9.95144L142.585 9.70344L142.413 9.45168L142.904 8.42449L142.9 7.56264L143.368 7.03777L143.122 7.7167L143.301 8.0349L143.665 9.00948L143.908 9.1135L144.702 10.058L144.757 10.4012L145.413 11.1341L146.289 12.0886L145.228 11.3844ZM157.948 11.5874L158.301 11.1953L157.948 12.0108V11.5874ZM158.15 16.7708L157.895 16.6104L157.599 16.0467L157.128 15.9514L157.287 16.4675L156.974 16.331L156.55 16.5677L156.881 16.1318L156.815 15.7435L157.701 15.379L159.032 17.6087L158.15 16.7708ZM161.059 19.0067L160.457 18.5908L161.037 18.8175L160.221 17.9181L161.35 18.6209L162.107 19.6167L161.059 19.0067Z" fill="#373D52"/>
<path d="M154.786 15.6086L154.54 14.9823L154.459 14.693L156.15 15.6387L155.032 14.3297L154.155 13.8274L153.665 12.7413L153.106 12.4069L152.928 11.9773L150.821 10.2348L150.171 8.93958L149.321 7.24355L148.706 6.48443L148.061 5.02512L146.524 3.82884L145.671 2.59874L144.927 1.3373L143.104 -0.000488281L143.071 0.551965L143.713 0.965298L143.769 1.79205L143.844 2.1328L144.063 2.49985L143.722 2.47107L143.64 2.13784L142.621 0.954117L142.201 0.830116L142.197 0.828833L142.018 0.774945L141.601 0.555723L141.574 1.36992L141.775 1.2572L141.272 2.80797L141.93 3.82389L142.185 3.50697L142.434 3.70988L142.197 4.142L142.081 5.20548L142.419 4.73698L142.509 4.05933L143.626 4.89104L143.655 5.93197L143.388 6.01968L143.721 6.14368L143.769 6.67735L144.008 6.42302L143.798 7.16711L143.948 7.10571L144.161 7.64313L144.084 8.24691L145.418 9.01226L145.253 8.42975L146.172 9.11243L145.678 8.09276L146.664 8.87442L147.098 8.83437L147.863 9.70869L148.565 11.0002L149.3 11.604L149.959 11.7781L151.993 14.1694L152.014 13.7886L152.451 14.1519L153.112 15.2755L154.511 16.7098L153.657 14.9824L154.221 15.1302L154.786 15.6086ZM146.894 8.15416L145.102 6.31534L144.715 5.34827L143.966 4.6017L143.518 3.65846L144.271 4.23218L144.012 3.52191L144.942 4.26976L145.672 5.30693L146.896 6.43805L146.894 8.15416Z" fill="white"/>
<path d="M164.009 15.9948L163.552 15.9885L162.297 14.3564L161.908 14.3902L160.727 13.5923L160.096 13.6223L158.48 12.0002L158.749 11.3049L157.926 10.2777L157.133 10.15L157.076 9.85314L156.68 9.72034L156.008 8.26103L155.535 6.89814L155.39 6.06139L154.538 5.6092L154.375 5.41509L154.972 4.98535L157.017 6.74408L158.84 10.0498L159.475 10.1062L160.798 12.3083L161.775 13.1638L162.395 13.7714L164.009 15.9948Z" fill="white"/>
<path d="M142.118 6.81635L141.98 7.52287L141.645 6.86392L141.3 6.47689L141.143 6.75376L141.216 7.46898L140.604 6.89654L140.198 7.85481L140.161 7.48272L140.492 6.69483L140.497 6.2276L139.974 5.42092L140.063 4.70946L140.569 3.66724L141.275 4.42636L141.303 4.87974L141.663 5.34577L141.747 6.15117L142.118 6.81635Z" fill="#EDF0F7"/>
<path d="M146.289 12.0887L145.227 11.3848L144.332 10.8787L143.898 10.558L143.56 10.6332L142.998 10.1033L142.619 9.95176L142.584 9.70376L142.413 9.45191L142.904 8.42481L142.899 7.56295L143.367 7.03809L143.122 7.71701L143.301 8.03522L143.665 9.00971L143.907 9.11373L144.702 10.0583L144.757 10.4014L145.413 11.1342L146.289 12.0887Z" fill="#EDF0F7"/>
<path d="M159.032 17.6093L158.15 16.7713L157.895 16.6109L157.599 16.0473L157.128 15.9521L157.287 16.4681L156.974 16.3316L156.55 16.5684L156.881 16.1324L156.815 15.7441L157.701 15.3796L159.032 17.6093Z" fill="white"/>
<path d="M162.107 19.617L161.06 19.007L160.457 18.5911L161.037 18.8178L160.222 17.9185L161.35 18.6211L162.107 19.617Z" fill="white"/>
<path d="M158.3 11.1958L157.948 12.0113V11.5879L158.3 11.1958Z" fill="white"/>
<path d="M155.484 9.60734L154.674 10.6082L154.909 9.90419L155.157 9.53467L155.484 9.60734Z" fill="white"/>
<path d="M165.137 22.6862L161.16 24.2821L158.659 24.7256L154.939 25.6575L150.331 27.1582L145.838 26.1022L144.287 26.8939L143.296 25.8529L137.161 28.4872L129.264 24.3661L125.389 25.4546L123.88 24.7068L122.575 25.1351L121.404 24.4086L119.652 24.951L118.487 24.2933L117.186 24.5915C117.186 24.5915 115.103 24.3685 115.141 24.3372C115.592 24.1267 116.049 23.9225 116.507 23.7283L116.9 22.8214L119.363 21.0827L120.773 18.6902L123.043 15.8166L124.168 15.8341L124.87 15.3681L127.621 12.0762L128.271 12.0775L131.131 9.03735L131.319 14.0617L132.273 17.926L134.234 19.6496L133.817 16.3815L132.862 15.4595L131.616 13.1935L133.491 14.9184L132.194 11.9472L133.26 13.0182L132.762 11.7041L132.039 10.5191L132.541 10.8787L132.857 10.682L133.075 10.7797L133.425 10.5605L134.188 10.0831L134.503 11.7191L134.941 12.1588L135.641 11.302L137.4 10.4389C137.381 10.484 137.375 12.3417 137.375 12.3417L139.573 15.224L139.852 16.9414L139.855 16.964L139.436 18.5185L141.351 19.9641L141.282 18.3481L140.797 17.8709L139.984 16.2425L141.161 17.3649L140.016 14.1481L139.897 13.2249L142.16 15.6675L143.245 16.8751L145.335 18.501L144.72 16.7749L145.804 16.6898L146.386 16.8538L149.017 19.3178L148.328 18.0251L150.807 19.7299L152.241 20.9199L152.643 20.7457L152.956 21.0527L153.861 21.4034L154.699 21.9195L156.211 20.5366L156.743 19.2977L158.055 21.3733L158.443 21.1792L158.832 21.7267L159.73 20.9563L160.187 20.1007L160.502 20.1358L160.796 19.7688L161.205 19.9204L162.029 21.2444L162.91 21.8344L163.338 22.4783L163.657 21.7868L163.924 22.0486L164.412 22.0849L164.69 22.482L164.857 22.5134L164.886 22.2791L165.137 22.6862Z" fill="#292F44"/>
<path d="M150.806 19.7298L146.507 16.1623L145.263 16.1923L143.079 14.9422L138.676 11.4799C138.25 11.1329 137.825 10.7859 137.4 10.439C137.381 10.4841 137.375 12.3418 137.375 12.3418L139.572 15.2241L139.851 16.9415L139.855 16.964L139.436 18.5186L141.351 19.9641L141.282 18.3482L140.796 17.871L139.983 16.2426L141.161 17.3649L140.016 14.1481L139.897 13.225L142.16 15.6676L143.245 16.8751L145.335 18.501L144.72 16.775L145.804 16.6898L146.386 16.8539L149.016 19.3178L148.328 18.0251L150.806 19.7298Z" fill="white"/>
<path d="M133.817 16.3816L132.861 15.4597L131.616 13.1936L133.49 14.9185L132.194 11.9473L133.259 13.0183L132.762 11.7042L132.039 10.5192L132.541 10.8787L132.857 10.6821L133.075 10.7798L133.425 10.5605L131.131 9.03735L131.319 14.0617L132.273 17.9261L134.234 19.6497L133.817 16.3816Z" fill="white"/>
<path d="M137.927 5.86401L137.83 6.08828L136.776 7.94213L135.238 9.26873L134.543 10.2759L135.641 11.3018L134.941 12.1586L134.503 11.7188L134.188 10.0829L135.298 8.34547L137.927 5.86401Z" fill="white"/>
</svg>
