<svg width="134" height="42" viewBox="0 0 134 42" fill="none" xmlns="http://www.w3.org/2000/svg">
<path d="M59.509 28.3577V14.6085H62.4159V25.961H68.3103V28.3577H59.509Z" fill="white"/>
<path d="M74.8812 28.5591C73.8204 28.5591 72.9074 28.3443 72.1421 27.9146C71.3812 27.4805 70.7949 26.8673 70.3831 26.0751C69.9714 25.2785 69.7655 24.3363 69.7655 23.2488C69.7655 22.188 69.9714 21.2571 70.3831 20.456C70.7949 19.6548 71.3745 19.0305 72.1219 18.5829C72.8738 18.1353 73.7555 17.9116 74.767 17.9116C75.4473 17.9116 76.0806 18.0212 76.6669 18.2405C77.2577 18.4553 77.7724 18.7798 78.211 19.214C78.6541 19.6481 78.9987 20.1941 79.2449 20.8521C79.4911 21.5055 79.6142 22.2708 79.6142 23.1481V23.9335H70.9068V22.1612H76.922C76.922 21.7494 76.8325 21.3847 76.6535 21.0669C76.4745 20.7491 76.2261 20.5007 75.9083 20.3217C75.595 20.1382 75.2303 20.0464 74.814 20.0464C74.3799 20.0464 73.995 20.1471 73.6593 20.3485C73.3281 20.5455 73.0685 20.8118 72.8805 21.1474C72.6926 21.4786 72.5963 21.8479 72.5919 22.2552V23.9403C72.5919 24.4505 72.6858 24.8913 72.8738 25.2628C73.0663 25.6343 73.3371 25.9207 73.6862 26.1221C74.0353 26.3235 74.4493 26.4242 74.9281 26.4242C75.2459 26.4242 75.5368 26.3795 75.8009 26.29C76.065 26.2005 76.291 26.0662 76.479 25.8872C76.6669 25.7081 76.8102 25.4888 76.9086 25.2292L79.5537 25.4038C79.4195 26.0393 79.1442 26.5943 78.728 27.0687C78.3162 27.5387 77.7836 27.9057 77.1302 28.1697C76.4812 28.4293 75.7315 28.5591 74.8812 28.5591Z" fill="white"/>
<path d="M84.421 28.5524C83.7631 28.5524 83.1768 28.4383 82.6621 28.21C82.1474 27.9773 81.7401 27.6349 81.4402 27.1829C81.1448 26.7263 80.9971 26.1579 80.9971 25.4776C80.9971 24.9048 81.1023 24.4236 81.3127 24.0342C81.523 23.6449 81.8095 23.3316 82.172 23.0944C82.5345 22.8571 82.9463 22.6781 83.4073 22.5573C83.8727 22.4364 84.3606 22.3514 84.8708 22.3022C85.4705 22.2395 85.9539 22.1813 86.3209 22.1276C86.6879 22.0694 86.9542 21.9844 87.1198 21.8725C87.2854 21.7606 87.3682 21.595 87.3682 21.3757V21.3354C87.3682 20.9102 87.2339 20.5813 86.9654 20.3485C86.7013 20.1158 86.3254 19.9994 85.8375 19.9994C85.3228 19.9994 84.9133 20.1136 84.609 20.3418C84.3046 20.5656 84.1032 20.8476 84.0048 21.1877L81.3597 20.9729C81.4939 20.3463 81.758 19.8048 82.1518 19.3482C82.5457 18.8872 83.0537 18.5337 83.6758 18.2875C84.3024 18.0369 85.0275 17.9116 85.851 17.9116C86.4239 17.9116 86.9721 17.9787 87.4958 18.113C88.0239 18.2472 88.4916 18.4553 88.8989 18.7373C89.3106 19.0193 89.6351 19.3818 89.8723 19.8249C90.1096 20.2635 90.2282 20.7894 90.2282 21.4026V28.3577H87.5159V26.9277H87.4354C87.2698 27.25 87.0482 27.5342 86.7707 27.7804C86.4932 28.022 86.1598 28.2123 85.7704 28.351C85.381 28.4853 84.9312 28.5524 84.421 28.5524ZM85.24 26.5786C85.6608 26.5786 86.0322 26.4958 86.3545 26.3302C86.6767 26.1602 86.9296 25.9319 87.1131 25.6455C87.2966 25.359 87.3884 25.0345 87.3884 24.672V23.5777C87.2988 23.6359 87.1758 23.6896 87.0191 23.7388C86.8669 23.7836 86.6946 23.8261 86.5022 23.8664C86.3097 23.9022 86.1173 23.9358 85.9248 23.9671C85.7324 23.994 85.5578 24.0186 85.4012 24.041C85.0655 24.0902 84.7723 24.1685 84.5217 24.2759C84.2711 24.3833 84.0764 24.5288 83.9376 24.7123C83.7989 24.8913 83.7295 25.1151 83.7295 25.3836C83.7295 25.773 83.8705 26.0707 84.1525 26.2765C84.4389 26.4779 84.8014 26.5786 85.24 26.5786Z" fill="white"/>
<path d="M92.447 28.3577V18.0458H95.2196V19.845H95.327C95.515 19.205 95.8306 18.7216 96.2736 18.3949C96.7167 18.0637 97.227 17.8981 97.8043 17.8981C97.9475 17.8981 98.1019 17.9071 98.2675 17.925C98.4331 17.9429 98.5786 17.9675 98.7039 17.9988V20.5365C98.5696 20.4962 98.3839 20.4604 98.1467 20.4291C97.9095 20.3978 97.6924 20.3821 97.4955 20.3821C97.0748 20.3821 96.6988 20.4739 96.3676 20.6574C96.0409 20.8364 95.7813 21.087 95.5889 21.4093C95.4009 21.7315 95.3069 22.103 95.3069 22.5237V28.3577H92.447Z" fill="white"/>
<path d="M103.043 22.3962V28.3577H100.183V18.0458H102.908V19.8652H103.029C103.257 19.2654 103.64 18.791 104.177 18.4419C104.714 18.0883 105.365 17.9116 106.131 17.9116C106.847 17.9116 107.471 18.0682 108.004 18.3815C108.536 18.6948 108.95 19.1424 109.246 19.7242C109.541 20.3015 109.689 20.9908 109.689 21.7919V28.3577H106.829V22.3022C106.833 21.6711 106.672 21.1788 106.346 20.8252C106.019 20.4671 105.569 20.2881 104.996 20.2881C104.611 20.2881 104.271 20.3709 103.976 20.5365C103.685 20.7021 103.456 20.9438 103.291 21.2616C103.13 21.5749 103.047 21.9531 103.043 22.3962Z" fill="white"/>
<path d="M111.943 28.3577V18.0458H114.803V28.3577H111.943ZM113.38 16.7166C112.954 16.7166 112.59 16.5756 112.285 16.2936C111.985 16.0072 111.835 15.6648 111.835 15.2664C111.835 14.8726 111.985 14.5347 112.285 14.2527C112.59 13.9663 112.954 13.823 113.38 13.823C113.805 13.823 114.167 13.9663 114.467 14.2527C114.771 14.5347 114.924 14.8726 114.924 15.2664C114.924 15.6648 114.771 16.0072 114.467 16.2936C114.167 16.5756 113.805 16.7166 113.38 16.7166Z" fill="white"/>
<path d="M122.639 18.0458V20.1941H116.275V18.0458H122.639ZM117.732 28.3577V17.3006C117.732 16.5532 117.877 15.9333 118.168 15.441C118.463 14.9487 118.866 14.5794 119.376 14.3333C119.887 14.0871 120.466 13.964 121.115 13.964C121.554 13.964 121.954 13.9976 122.317 14.0647C122.684 14.1319 122.957 14.1923 123.136 14.246L122.626 16.3943C122.514 16.3585 122.375 16.3249 122.209 16.2936C122.048 16.2623 121.883 16.2466 121.713 16.2466C121.292 16.2466 120.999 16.3451 120.833 16.542C120.668 16.7345 120.585 17.0052 120.585 17.3543V28.3577H117.732Z" fill="white"/>
<path d="M126.152 32.2247C125.789 32.2247 125.449 32.1956 125.132 32.1374C124.818 32.0837 124.559 32.0143 124.353 31.9293L124.997 29.7944C125.333 29.8973 125.635 29.9533 125.904 29.9622C126.177 29.9712 126.412 29.9085 126.608 29.7743C126.81 29.64 126.973 29.4117 127.099 29.0895L127.266 28.6531L123.567 18.0458H126.575L128.71 25.6186H128.817L130.972 18.0458H134L129.992 29.4722C129.8 30.0271 129.538 30.5105 129.207 30.9223C128.88 31.3385 128.466 31.6585 127.965 31.8823C127.463 32.1105 126.859 32.2247 126.152 32.2247Z" fill="white"/>
<circle cx="27.5931" cy="20.5931" r="20.5931" fill="url(#paint0_linear_14_55)"/>
<path d="M26.9204 12.1975L36.1133 17.505V25.7238L26.9204 31.0312L17.7276 25.7238V17.505L26.9204 12.1975Z" fill="white"/>
<g filter="url(#filter0_d_14_55)">
<path d="M26.9765 11.2389L40.8764 17.2758L26.9765 23.3127L13.0767 17.2758L26.9765 11.2389Z" fill="white"/>
</g>
<defs>
<filter id="filter0_d_14_55" x="0.0388098" y="0.373986" width="53.8754" height="38.1495" filterUnits="userSpaceOnUse" color-interpolation-filters="sRGB">
<feFlood flood-opacity="0" result="BackgroundImageFix"/>
<feColorMatrix in="SourceAlpha" type="matrix" values="0 0 0 0 0 0 0 0 0 0 0 0 0 0 0 0 0 0 127 0" result="hardAlpha"/>
<feOffset dy="2.17298"/>
<feGaussianBlur stdDeviation="6.51893"/>
<feComposite in2="hardAlpha" operator="out"/>
<feColorMatrix type="matrix" values="0 0 0 0 0.231373 0 0 0 0 0.784314 0 0 0 0 0.788235 0 0 0 0.92 0"/>
<feBlend mode="normal" in2="BackgroundImageFix" result="effect1_dropShadow_14_55"/>
<feBlend mode="normal" in="SourceGraphic" in2="effect1_dropShadow_14_55" result="shape"/>
</filter>
<linearGradient id="paint0_linear_14_55" x1="14.0894" y1="4.72629" x2="41.0968" y2="33.084" gradientUnits="userSpaceOnUse">
<stop stop-color="#40D9DA"/>
<stop offset="1" stop-color="#30A4A5"/>
</linearGradient>
</defs>
</svg>
